<svg xmlns="http://www.w3.org/2000/svg" xmlns:xlink="http://www.w3.org/1999/xlink" viewBox="0 0 21.47 5.88"><defs><style>.cls-1{fill:none;}.cls-2{isolation:isolate;}.cls-3{clip-path:url(#clip-path);}.cls-4{fill:url(#linear-gradient);}.cls-5,.cls-7{opacity:0.3;}.cls-6,.cls-7{fill:#0082f4;}.cls-8{mix-blend-mode:multiply;}.cls-9{fill:#008fdb;}.cls-10{opacity:0.4;}.cls-11{opacity:0.5;}</style><clipPath id="clip-path"><rect class="cls-1" width="21.47" height="5.88"/></clipPath><linearGradient id="linear-gradient" x1="-12.73" y1="-89.14" x2="-12.73" y2="-57.77" gradientTransform="matrix(0, 1, 1, 0, 79.91, 23.36)" gradientUnits="userSpaceOnUse"><stop offset="0" stop-color="#fff"/><stop offset="0.31" stop-color="#fdfeff"/><stop offset="0.45" stop-color="#f6fbff"/><stop offset="0.55" stop-color="#e9f5ff"/><stop offset="0.64" stop-color="#d7eeff"/><stop offset="0.71" stop-color="#c0e3ff"/><stop offset="0.78" stop-color="#a3d7ff"/><stop offset="0.84" stop-color="#81c8ff"/><stop offset="0.9" stop-color="#59b7ff"/><stop offset="0.95" stop-color="#2da4ff"/><stop offset="1" stop-color="#0090ff"/></linearGradient></defs><title>breadcrumb</title><g class="cls-2"><g id="Layer_1" data-name="Layer 1"><g class="cls-3"><rect class="cls-4" x="-5.53" y="-0.33" width="27.26" height="21.91"/><g class="cls-5"><polygon class="cls-6" points="21.73 18.54 21.73 1.31 21.01 2.03 19 4.04 15.56 7.48 15.42 7.62 13.12 9.92 13.61 10.42 21.73 18.54"/><polygon class="cls-7" points="21.73 13.66 21.73 -0.33 7.75 -0.33 15.56 7.48 16.05 7.98 21.73 13.66"/><g class="cls-8"><polygon class="cls-9" points="21.73 6.78 21.73 -0.33 14.63 -0.33 19 4.04 19.5 4.54 21.73 6.78"/></g><g class="cls-10"><polygon class="cls-6" points="21.45 21.58 21.73 21.58 21.73 2.3 21.51 2.53 19.5 4.54 16.05 7.98 15.92 8.12 13.61 10.42 11.95 12.08 21.45 21.58"/><polygon class="cls-7" points="21.73 13.94 21.73 -0.33 7.47 -0.33 15.42 7.62 15.92 8.12 21.73 13.94"/><g class="cls-8"><polygon class="cls-9" points="21.73 2.76 21.73 -0.33 18.65 -0.33 21.01 2.03 21.51 2.53 21.73 2.76"/></g></g></g><polygon class="cls-6" points="21.73 13.42 21.73 3.22 16.63 8.32 21.73 13.42"/><polygon class="cls-7" points="21.73 10.92 21.73 -0.33 16.41 -0.33 13.45 2.64 21.73 10.92"/><g class="cls-8"><polygon class="cls-9" points="21.73 7.39 21.73 -0.33 19.84 -0.33 16.93 2.58 21.73 7.39"/></g><g class="cls-10"><polygon class="cls-6" points="21.73 15.13 21.73 3.73 20.94 4.53 18.07 7.4 16.03 9.43 21.73 15.13"/><polygon class="cls-7" points="21.73 11.06 21.73 -0.33 11.38 -0.33 10.86 0.19 18.07 7.4 21.73 11.06"/><g class="cls-8"><polygon class="cls-9" points="21.73 5.32 21.73 -0.33 16.95 -0.33 16.52 0.1 20.94 4.53 21.73 5.32"/></g></g><g class="cls-11"><polygon class="cls-6" points="21.73 3.39 21.73 16.89 14.98 10.14 21.73 3.39"/><g class="cls-10"><polygon class="cls-6" points="21.73 1.13 21.73 16.21 20.68 15.16 16.88 11.37 14.19 8.68 21.73 1.13"/></g></g></g></g></g></svg>