<?xml version="1.0" encoding="UTF-8"?>
<svg id="Layer_1" xmlns="http://www.w3.org/2000/svg" viewBox="0 0 213 98">
  <defs>
    <style>
      .cls-1 {
        font-family: Poppins-SemiBoldItalic, Poppins;
        font-size: 26.66px;
        font-style: italic;
        font-weight: 600;
      }

      .cls-1, .cls-2 {
        fill: #0d1419;
      }

      .cls-3 {
        fill: #247cc1;
      }
    </style>
  </defs>
  <path class="cls-2" d="M27.84,16.29c0,.29-.52.54-1.24.63-.18.02-.38.04-.59.04-1.01,0-1.82-.3-1.82-.67s.82-.67,1.82-.67,1.82.3,1.82.67Z"/>
  <text class="cls-1" transform="translate(36.29 57.03)"><tspan x="0" y="0">Soluciones</tspan></text>
  <text class="cls-1" transform="translate(203.54 82.99)"><tspan x="0" y="0"> </tspan></text>
  <path class="cls-3" d="M15.52,87.97h0c-.57.7-.11,1.8.76,1.8h188.7c.81,0,1.47-.71,1.47-1.59h0c0-.88-.66-1.59-1.47-1.59H18.33c-1.08,0-2.1.5-2.81,1.38Z"/>
  <g>
    <path class="cls-2" d="M13.05,49.31c-.76,2.11-3.79,10.95-3.36,15.51.01.13.12.22.25.22h0c.11,0,.21-.08.24-.19l3.78-15.24c.06-.24-.06-.48-.29-.57h0c-.25-.1-.53.02-.62.27Z"/>
    <path class="cls-2" d="M21.74,42.49c-1.11,3.09-5.55,16.03-4.93,22.72.02.19.18.33.37.33h0c.17,0,.31-.11.35-.28l5.53-22.33c.09-.35-.09-.7-.42-.84h0c-.36-.15-.77.03-.91.4Z"/>
    <path class="cls-2" d="M12.53,17.68l11.91,5.65,21.57-5.55L26.09,7.62,4.62,14.09l5.14,2.57v7.6c6.37,11.81,19.72,6.47,19.72,6.47-5.24,7.19-9.65,39.85-9.65,39.85l-3.3,5.97c-1.93,3.5-7.15,2.86-8.18-1l-1.36-5.07s-1.88-.11-1.85.21c.21,1.86,5.55,19.1,5.55,19.1l10.48-17.87c.92-8.03,2.25-14.45,3.29-18.83,0,0,1.27-5.34,7.18-24.31-14.79,5.75-20.95-4.72-20.95-4.72v-7.39l-4.11-2.26,19.31-5.55,17.15,8.52-18.49,4.62-12.12-5.34.1,1.03Z"/>
  </g>
  <path class="cls-3" d="M16.62,76.38l-.09.16c-1.79,3.24-6.38,2.93-7.88-.19.54,1.43,1.06,3.04,1.53,4.8.41,1.55.71,3.02.94,4.38.03.19.28.23.38.06,1.71-3.07,3.41-6.15,5.12-9.22Z"/>
  <path class="cls-2" d="M35.44,30.83l-1.18,1.74c-.59.87-.92,1.88-.97,2.92.49,1.05,1.53,1.74,2.67,1.77,1.21.03,2.33-.66,2.85-1.77-.02-.4-.1-.98-.36-1.65-.21-.52-.5-1.01-.87-1.44l-1.34-1.57.08-10.01c0-.32-.19-.62-.49-.75l-8.66-3.77h-.98l9,4.03c.24.11.39.35.39.61l-.15,9.89Z"/>
</svg>