<?xml version="1.0" encoding="UTF-8"?>
<svg id="Layer_1" xmlns="http://www.w3.org/2000/svg" viewBox="0 0 148.55 68.35">
  <defs>
    <style>
      .cls-1 {
        fill: #247cc1;
      }

      .cls-2 {
        font-family: Poppins-SemiBoldItalic, Poppins;
        font-size: 18.67px;
        font-style: italic;
        font-weight: 600;
      }

      .cls-2, .cls-3 {
        fill: #0d1419;
      }
    </style>
  </defs>
  <path class="cls-3" d="M20.55,10.44c0,.21-.36.38-.87.44-.13.02-.27.02-.41.02-.71,0-1.28-.21-1.28-.47s.57-.47,1.28-.47,1.28.21,1.28.47Z"/>
  <text class="cls-2" transform="translate(26.46 38.96)"><tspan x="0" y="0">Soluciones</tspan></text>
  <text class="cls-2" transform="translate(143.55 57.13)"><tspan x="0" y="0"> </tspan></text>
  <path class="cls-1" d="M11.93,60.62h0c-.4.49-.07,1.26.53,1.26h132.09c.57,0,1.03-.5,1.03-1.11h0c0-.62-.46-1.11-1.03-1.11H13.9c-.75,0-1.47.35-1.97.97Z"/>
  <g>
    <path class="cls-3" d="M10.2,33.55c-.53,1.48-2.65,7.66-2.35,10.86,0,.09.09.16.17.16h0c.08,0,.15-.05.17-.13l2.64-10.67c.04-.17-.04-.34-.2-.4h0c-.17-.07-.37.01-.43.19Z"/>
    <path class="cls-3" d="M16.28,28.78c-.77,2.16-3.89,11.22-3.45,15.91.01.13.12.23.26.23h0c.12,0,.22-.08.25-.19l3.87-15.63c.06-.24-.07-.49-.3-.59h0c-.25-.11-.54.02-.63.28Z"/>
    <path class="cls-3" d="M9.84,11.41l8.34,3.95,15.1-3.88-13.95-7.12-15.03,4.53,3.6,1.8v5.32c4.46,8.27,13.8,4.53,13.8,4.53-3.67,5.03-6.76,27.9-6.76,27.9l-2.31,4.18c-1.35,2.45-5,2-5.73-.7l-.95-3.55s-1.32-.08-1.29.14c.14,1.3,3.88,13.37,3.88,13.37l7.33-12.51c.65-5.62,1.58-10.11,2.31-13.18,0,0,.89-3.74,5.03-17.02-10.35,4.03-14.67-3.31-14.67-3.31v-5.18l-2.88-1.58,13.52-3.88,12.01,5.97-12.94,3.24-8.48-3.74.07.72Z"/>
  </g>
  <path class="cls-1" d="M12.69,52.5l-.06.11c-1.25,2.27-4.47,2.05-5.51-.14.38,1,.74,2.13,1.07,3.36.29,1.09.5,2.12.66,3.07.02.13.2.16.26.04,1.19-2.15,2.39-4.3,3.58-6.45Z"/>
  <path class="cls-3" d="M25.87,20.61l-.82,1.22c-.41.61-.65,1.31-.68,2.05.34.74,1.07,1.22,1.87,1.24.85.02,1.63-.46,2-1.24-.02-.28-.07-.69-.26-1.15-.15-.37-.35-.71-.61-1.01l-.94-1.1.06-7.01c0-.23-.13-.43-.34-.52l-6.06-2.64h-.68l6.3,2.82c.17.08.28.24.27.43l-.1,6.92Z"/>
</svg>