<?xml version="1.0" encoding="UTF-8"?>
<svg id="Layer_1" xmlns="http://www.w3.org/2000/svg" viewBox="0 0 107.96 49.67">
  <defs>
    <style>
      .cls-1 {
        fill: #247cc1;
      }

      .cls-2 {
        font-family: Poppins-SemiBoldItalic, Poppins;
        font-size: 12.45px;
        font-style: italic;
        font-weight: 600;
      }

      .cls-2, .cls-3 {
        fill: #0d1419;
      }
    </style>
  </defs>
  <path class="cls-3" d="M21.7,9.7c0,.14-.24.25-.58.3-.09.01-.18.02-.27.02-.47,0-.85-.14-.85-.31s.38-.31.85-.31.85.14.85.31Z"/>
  <text class="cls-2" transform="translate(25.65 28.73)"><tspan x="0" y="0">Soluciones</tspan></text>
  <text class="cls-2" transform="translate(103.76 40.85)"><tspan x="0" y="0"> </tspan></text>
  <path class="cls-1" d="M15.96,43.18h0c-.26.33-.05.84.35.84h88.12c.38,0,.69-.33.69-.74h0c0-.41-.31-.74-.69-.74H17.27c-.5,0-.98.24-1.31.65Z"/>
  <g>
    <path class="cls-3" d="M14.8,25.12c-.35.99-1.77,5.11-1.57,7.24,0,.06.06.1.12.1h0c.05,0,.1-.04.11-.09l1.76-7.12c.03-.11-.03-.22-.13-.27h0c-.12-.05-.25,0-.29.13Z"/>
    <path class="cls-3" d="M18.86,21.94c-.52,1.44-2.59,7.49-2.3,10.61,0,.09.08.15.17.15h0c.08,0,.15-.05.17-.13l2.58-10.43c.04-.16-.04-.33-.2-.39h0c-.17-.07-.36.01-.42.19Z"/>
    <path class="cls-3" d="M14.56,10.35l5.56,2.64,10.07-2.59-9.3-4.75-10.03,3.02,2.4,1.2v3.55c2.97,5.52,9.21,3.02,9.21,3.02-2.45,3.36-4.51,18.61-4.51,18.61l-1.54,2.79c-.9,1.63-3.34,1.34-3.82-.47l-.63-2.37s-.88-.05-.86.1c.1.87,2.59,8.92,2.59,8.92l4.89-8.35c.43-3.75,1.05-6.75,1.54-8.79,0,0,.59-2.49,3.35-11.35-6.91,2.69-9.78-2.21-9.78-2.21v-3.45l-1.92-1.06,9.02-2.59,8.01,3.98-8.63,2.16-5.66-2.49.05.48Z"/>
  </g>
  <path class="cls-1" d="M16.47,37.76l-.04.07c-.84,1.51-2.98,1.37-3.68-.09.25.67.5,1.42.71,2.24.19.73.33,1.41.44,2.05.01.09.13.11.18.03.8-1.43,1.59-2.87,2.39-4.3Z"/>
  <path class="cls-3" d="M25.25,16.49l-.55.81c-.27.4-.43.88-.45,1.37.23.49.71.81,1.25.83.56.02,1.09-.31,1.33-.83-.01-.18-.05-.46-.17-.77-.1-.24-.23-.47-.41-.67l-.63-.73.04-4.68c0-.15-.09-.29-.23-.35l-4.04-1.76h-.46l4.2,1.88c.11.05.18.16.18.29l-.07,4.62Z"/>
</svg>